# Blender 3.6.5
# www.blender.org
o fff
v 1.000000 1.000000 -1.000000
v 1.000000 -1.000000 -1.000000
v 1.000000 1.000000 1.000000
v 1.000000 -1.000000 1.000000
v -1.000000 1.000000 -1.000000
v -1.000000 -1.000000 -1.000000
v -1.000000 1.000000 1.000000
v -1.000000 -1.000000 1.000000
vn -0.0000 1.0000 -0.0000
vn -0.0000 -0.0000 1.0000
vn -1.0000 -0.0000 -0.0000
vn -0.0000 -1.0000 -0.0000
vn 1.0000 -0.0000 -0.0000
vn -0.0000 -0.0000 -1.0000
s 0
f 1//1 5//1 7//1 3//1
f 4//2 3//2 7//2 8//2
f 8//3 7//3 5//3 6//3
f 6//4 2//4 4//4 8//4
f 2//5 1//5 3//5 4//5
f 6//6 5//6 1//6 2//6
o fffff
v -0.000667 0.057667 1.000000
v 0.049333 -0.029333 1.000000
v 0.184333 0.292667 1.000000
v -0.048667 -0.028333 1.000000
v -0.183667 0.292667 1.000000
v -0.301667 0.292667 1.000000
v -0.048667 -0.389333 1.000000
v 0.049333 -0.389333 1.000000
v 0.302333 0.292667 1.000000
vn -0.0000 -0.0000 1.0000
s 0
f 9//7 10//7 17//7 11//7
f 12//7 10//7 9//7
f 12//7 9//7 13//7 14//7
f 16//7 10//7 12//7 15//7
o fff
v 0.000667 0.057667 -1.000000
v -0.049333 -0.029333 -1.000000
v -0.184333 0.292667 -1.000000
v 0.183667 0.292667 -1.000000
v 0.048667 -0.028333 -1.000000
v 0.048667 -0.389333 -1.000000
v 0.301667 0.292667 -1.000000
v -0.049333 -0.389333 -1.000000
v -0.302333 0.292667 -1.000000
vn -0.0000 -0.0000 -1.0000
s 0
f 18//8 19//8 26//8 20//8
f 22//8 19//8 18//8
f 22//8 18//8 21//8 24//8
f 23//8 25//8 19//8 22//8
o ffff
v 0.584667 -0.122333 -1.000000
v 0.341667 -0.122333 -1.000000
v 0.584667 -0.215333 -1.000000
v 0.341667 -0.215333 -1.000000
vn -0.0000 -0.0000 -1.0000
s 0
f 27//9 29//9 30//9 28//9
o yellffow
v 1.000000 0.329500 -0.213250
v 1.000000 0.069500 -0.000250
v 1.000000 0.329500 -0.331250
v 1.000000 0.000500 -0.059250
v 1.000000 -0.070500 -0.000250
v 1.000000 -0.352500 -0.350250
v 1.000000 -0.352500 -0.232250
v 1.000000 -0.352500 0.234750
v 1.000000 0.000500 0.059750
v 1.000000 0.329500 0.332750
v 1.000000 -0.352500 0.353750
v 1.000000 0.329500 0.213750
vn 1.0000 -0.0000 -0.0000
s 0
f 32//10 34//10 33//10 31//10
f 39//10 35//10 34//10 32//10
f 37//10 36//10 34//10 35//10
f 35//10 39//10 41//10 38//10
f 39//10 32//10 42//10 40//10
o cyasdn
v 1.000000 -0.085500 0.638750
v 1.000000 -0.085500 0.395750
v 1.000000 -0.178500 0.638750
v 1.000000 -0.178500 0.395750
vn 1.0000 -0.0000 -0.0000
s 0
f 45//11 46//11 44//11 43//11
o magfsenta
v -1.000000 0.329500 0.213250
v -1.000000 0.069500 0.000250
v -1.000000 0.329500 0.331250
v -1.000000 0.000500 0.059250
v -1.000000 -0.070500 0.000250
v -1.000000 -0.352500 0.350250
v -1.000000 -0.352500 0.232250
v -1.000000 -0.352500 -0.234750
v -1.000000 0.000500 -0.059750
v -1.000000 0.329500 -0.332750
v -1.000000 -0.352500 -0.353750
v -1.000000 0.329500 -0.213750
vn -1.0000 -0.0000 -0.0000
s 0
f 48//12 50//12 49//12 47//12
f 55//12 51//12 50//12 48//12
f 53//12 52//12 50//12 51//12
f 51//12 55//12 57//12 54//12
f 55//12 48//12 58//12 56//12
o purwerple
v 0.151800 -1.000000 0.303600
v -0.282200 -1.000000 -0.290400
v 0.332800 -1.000000 0.391600
v -0.255200 -1.000000 0.303600
v -0.255200 -1.000000 0.391600
v -0.101200 -1.000000 -0.202400
v 0.332800 -1.000000 -0.202400
v 0.332800 -1.000000 -0.290400
vn -0.0000 -1.0000 -0.0000
s 0
f 60//13 64//13 61//13 59//13
f 62//13 59//13 61//13 63//13
f 60//13 66//13 65//13 64//13
o pizxnk
v 0.101200 1.000000 -0.202400
v 0.282200 1.000000 -0.290400
v -0.305800 1.000000 -0.202400
v -0.332800 1.000000 0.391600
v 0.282200 1.000000 0.391600
v -0.151800 1.000000 0.303600
v 0.282200 1.000000 0.303600
v -0.305800 1.000000 -0.290400
vn -0.0000 1.0000 -0.0000
s 0
f 69//14 67//14 68//14 74//14
f 70//14 72//14 68//14 67//14
f 70//14 71//14 73//14 72//14
o brrown
v -0.631800 1.000000 0.124600
v -0.388800 1.000000 0.124600
v -0.631800 1.000000 0.217600
v -0.388800 1.000000 0.217600
vn -0.0000 1.0000 -0.0000
s 0
f 75//15 77//15 78//15 76//15
